<?xml version="1.0" standalone="no"?>
<!DOCTYPE svg PUBLIC "-//W3C//DTD SVG 20010904//EN"
 "http://www.w3.org/TR/2001/REC-SVG-20010904/DTD/svg10.dtd">
<svg version="1.0" xmlns="http://www.w3.org/2000/svg"
 width="700.000000pt" height="800.000000pt" viewBox="0 0 700.000000 800.000000"
 preserveAspectRatio="xMidYMid meet">
<metadata>
Created by potrace 1.11, written by Peter Selinger 2001-2013
</metadata>
<g transform="translate(0.000000,800.000000) scale(0.100000,-0.100000)"
fill="#000000" stroke="none">
<path d="M2560 7383 c0 -39 41 -252 80 -418 39 -163 70 -380 70 -493 0 -108
-21 -225 -55 -299 -21 -46 -31 -56 -84 -83 -406 -204 -705 -607 -800 -1076
-37 -182 -47 -415 -26 -559 l5 -31 -97 4 c-87 3 -103 1 -143 -20 -84 -43 -126
-145 -117 -284 9 -154 80 -256 233 -336 100 -52 196 -79 284 -80 90 0 139 17
186 67 l33 36 40 -26 c146 -92 469 -192 824 -256 62 -12 68 -15 62 -33 -4 -12
-9 -54 -12 -94 -4 -60 -10 -78 -30 -100 -73 -79 -169 -354 -227 -651 -22 -109
-28 -127 -82 -213 -201 -324 -219 -372 -219 -593 0 -164 18 -252 74 -360 46
-90 108 -150 219 -210 49 -26 111 -69 138 -94 151 -142 283 -199 431 -188 130
10 199 61 241 179 16 47 17 48 59 48 23 0 59 8 79 17 34 17 36 17 46 -1 45
-80 125 -110 171 -64 19 20 35 25 69 24 38 -1 51 5 95 42 49 40 78 91 71 123
-2 9 3 12 12 9 8 -2 35 -4 59 -4 60 0 83 28 79 98 l-3 51 190 -1 c170 0 209
-4 375 -33 102 -19 221 -34 265 -34 72 -1 86 2 143 33 115 61 211 191 253 340
24 88 24 163 0 276 -59 272 -171 444 -314 478 -78 19 -176 -52 -223 -159 -16
-36 -32 -65 -36 -65 -5 0 -23 10 -42 22 l-34 22 33 51 c18 27 47 97 65 155 17
58 42 128 55 155 14 28 27 77 31 110 4 33 12 74 19 91 14 33 66 64 110 64 30
0 65 16 82 39 21 27 16 98 -8 122 -17 17 -19 25 -10 50 14 41 3 85 -29 117
-15 15 -35 42 -44 59 -19 38 -62 53 -128 46 -39 -5 -48 -2 -71 21 -38 38 -106
36 -183 -5 -96 -50 -126 -88 -154 -194 -7 -27 -15 -52 -16 -54 -2 -2 -13 8
-24 22 -41 52 -139 60 -186 16 -34 -32 -30 -73 11 -139 37 -57 45 -100 20
-100 -8 0 -31 11 -51 25 -20 14 -45 25 -55 25 -28 0 -83 53 -184 180 -101 128
-143 170 -192 197 -29 16 -32 22 -39 82 -4 37 -11 77 -16 91 -6 16 -6 26 1 28
28 9 258 170 351 245 180 146 370 345 436 455 16 28 20 29 83 28 54 0 78 6
134 31 119 56 239 192 273 311 14 46 14 64 4 119 -17 88 -70 192 -135 261
l-53 57 -78 0 c-66 -1 -88 -5 -132 -29 -30 -15 -55 -26 -56 -24 -1 2 -17 44
-36 93 -151 410 -431 740 -776 913 -149 75 -356 134 -515 148 -89 7 -133 33
-251 143 -173 162 -277 318 -469 706 -160 324 -159 322 -159 278z m101 -235
c18 -46 59 -139 92 -208 32 -69 73 -168 91 -220 62 -180 124 -303 188 -376 42
-48 47 -35 8 21 -31 46 -111 208 -124 255 -5 14 8 2 30 -30 59 -87 168 -213
228 -265 31 -26 56 -51 56 -55 0 -4 -39 -10 -86 -14 -108 -8 -213 -29 -330
-67 -50 -16 -94 -29 -97 -29 -4 0 2 20 12 43 38 89 51 262 30 397 -6 39 -9 78
-7 87 5 28 69 -273 75 -356 5 -61 8 -70 15 -50 13 32 2 171 -23 293 -25 120
-82 314 -149 502 -28 78 -50 145 -50 148 0 18 11 -3 41 -76z m929 -967 c136
-32 230 -66 353 -128 125 -64 204 -120 301 -212 271 -260 486 -713 521 -1098
7 -83 -7 -176 -37 -242 -101 -219 -396 -516 -794 -799 -83 -59 -160 -112 -170
-119 -16 -10 -14 -11 14 -6 l33 6 -21 -54 c-31 -79 -49 -101 -115 -134 -54
-27 -69 -30 -155 -30 -121 0 -174 18 -265 91 -109 87 -116 90 -397 154 -323
74 -435 110 -627 202 l-124 60 -25 -31 c-38 -49 -77 -65 -162 -65 -86 0 -154
19 -249 71 -153 83 -201 152 -209 308 -7 130 11 179 76 207 40 18 59 20 141
15 53 -3 106 -9 119 -13 21 -6 22 -4 15 22 -15 57 -8 452 10 559 76 437 294
787 631 1014 99 67 253 143 361 179 77 25 130 37 285 66 14 2 108 3 210 2 148
-3 204 -8 280 -25z m1426 -1086 c55 -35 129 -184 141 -287 16 -137 -200 -378
-339 -378 -21 0 -38 3 -38 8 0 4 10 32 22 62 35 91 37 261 4 424 -15 71 -25
130 -24 131 2 1 22 12 45 24 80 40 141 45 189 16z m-42 -1641 c9 -8 16 -20 16
-25 0 -26 -33 -82 -78 -132 -54 -59 -86 -111 -80 -129 3 -7 14 4 25 23 12 19
44 51 72 72 51 39 91 92 91 120 0 17 12 22 77 32 34 5 45 3 62 -14 39 -39 26
-62 -92 -155 -53 -42 -91 -89 -102 -125 -6 -20 -2 -18 26 13 18 21 66 60 106
87 40 27 84 62 98 77 21 23 27 25 35 12 26 -41 -2 -98 -67 -135 -51 -29 -113
-83 -113 -98 0 -4 13 1 28 12 41 29 160 74 177 67 16 -6 20 -52 7 -73 -4 -6
-33 -18 -65 -26 -105 -28 -127 -55 -152 -183 -16 -83 -32 -109 -82 -130 -36
-16 -101 -18 -121 -5 -11 6 -9 15 7 42 25 40 26 77 7 124 -20 48 -26 44 -20
-12 8 -82 -38 -134 -119 -135 -87 -2 -132 59 -172 230 -22 92 -33 120 -61 153
-43 52 -44 82 -3 99 23 10 39 10 69 1 34 -10 45 -22 86 -91 26 -44 52 -80 56
-80 5 0 4 9 -2 19 -15 29 -12 58 14 141 38 123 69 166 146 205 71 36 103 41
124 19z m-953 -101 c31 -32 88 -97 127 -144 39 -47 84 -97 100 -111 29 -24 29
-26 14 -43 -16 -16 -16 -17 3 -11 23 6 93 -8 107 -22 6 -6 -7 -19 -35 -35 -38
-23 -77 -64 -77 -82 0 -3 15 5 33 18 33 26 143 65 152 55 4 -3 -3 -23 -14 -44
-32 -60 -29 -145 9 -210 35 -61 73 -95 152 -135 110 -56 217 -70 316 -43 24 7
24 6 9 -22 -9 -16 -29 -44 -44 -63 l-29 -34 -130 -2 c-129 -1 -140 -3 -246
-49 l-37 -16 -31 51 c-17 28 -63 85 -102 126 -41 44 -68 80 -64 88 34 89 31
187 -8 269 -22 46 -156 247 -156 234 0 -3 25 -57 55 -121 79 -165 91 -219 75
-330 l-12 -89 29 -31 c15 -18 33 -36 39 -42 20 -19 92 -120 108 -153 l17 -33
-51 -46 c-28 -25 -49 -48 -46 -51 3 -2 27 10 54 27 70 45 196 88 293 101 105
14 187 2 275 -39 l64 -30 0 -49 c0 -42 -3 -50 -26 -63 -28 -14 -74 -65 -74
-80 0 -5 19 4 42 21 51 37 58 37 59 3 0 -16 6 -46 14 -68 l13 -40 1 75 c2 97
32 242 67 319 49 110 116 145 200 105 38 -18 44 -34 13 -34 -54 0 -105 -59
-134 -157 -42 -142 -58 -385 -34 -519 17 -96 49 -182 86 -231 19 -25 32 -47
29 -50 -15 -16 -109 -11 -251 11 -234 38 -425 51 -570 39 l-120 -10 -34 39
c-49 57 -103 82 -160 74 -136 -20 -139 -20 -145 2 -4 10 -15 27 -26 37 -16 14
-20 31 -20 81 0 76 -23 124 -136 277 -43 60 -103 143 -133 185 -53 76 -53 77
-47 135 16 156 -46 338 -178 521 -44 60 -45 54 -6 -24 87 -173 130 -327 130
-471 l0 -97 136 -203 c150 -224 173 -267 174 -319 l0 -35 -98 0 c-73 0 -105
-4 -131 -17 -19 -10 -37 -18 -41 -18 -4 0 -12 19 -19 43 -24 80 -93 196 -158
267 -86 93 -184 144 -276 143 -67 0 -127 -21 -164 -55 -29 -27 -36 -21 -73 71
-46 112 -61 201 -50 301 31 301 182 790 243 790 7 0 44 -23 82 -51 140 -102
262 -144 401 -138 68 3 91 10 155 41 107 53 239 191 239 250 0 28 12 22 71
-39z m-1255 -1010 c13 -68 56 -179 95 -245 l28 -47 -19 -44 c-11 -25 -26 -73
-34 -108 -8 -35 -22 -84 -31 -108 -9 -24 -15 -63 -13 -85 l3 -41 16 35 16 35
7 -52 c3 -28 12 -68 19 -88 11 -32 13 -21 13 102 0 148 14 225 59 312 48 96
122 139 220 126 54 -6 68 -25 19 -25 -66 0 -142 -78 -170 -173 -41 -142 -11
-380 76 -597 43 -108 116 -208 196 -267 l29 -22 -40 6 c-92 13 -211 76 -310
165 -27 25 -87 68 -132 97 -46 29 -102 74 -124 99 -48 54 -102 163 -118 240
-30 145 -22 337 21 447 22 57 149 295 158 295 3 0 10 -26 16 -57z m1422 -731
c43 -31 95 -116 96 -159 2 -54 -23 -64 -80 -34 -25 14 -50 34 -54 46 -23 61
-97 115 -157 115 -26 0 -26 -2 12 -19 55 -25 91 -64 109 -118 17 -50 21 -138
7 -147 -5 -3 -18 20 -30 52 -43 115 -99 171 -177 179 l-49 4 45 -21 c25 -12
56 -31 69 -43 29 -27 91 -149 91 -178 0 -27 -27 -59 -49 -59 -29 0 -69 45 -85
96 -22 67 -61 104 -117 110 l-44 5 48 -26 c40 -21 53 -36 72 -78 31 -72 39
-115 25 -132 -22 -27 -60 -18 -93 22 -55 65 -85 93 -97 93 -10 0 -10 -3 -1
-14 10 -12 6 -17 -26 -25 -21 -6 -49 -11 -63 -11 l-25 0 -1 131 -2 131 47 29
c68 44 131 59 250 60 58 1 117 5 131 10 41 14 115 4 148 -19z"/>
<path d="M3620 5866 c-111 -32 -178 -86 -292 -233 -99 -128 -131 -148 -227
-140 -51 4 -91 16 -177 55 -153 70 -210 85 -303 80 -84 -4 -164 -34 -226 -86
-87 -71 -174 -219 -215 -364 -30 -105 -38 -283 -16 -368 24 -94 74 -162 138
-189 80 -33 169 -44 307 -38 205 9 304 46 478 179 87 67 105 77 100 57 -12
-49 -19 -99 -14 -99 2 0 18 29 36 64 17 35 51 82 76 105 40 37 50 41 94 41 53
0 154 -32 184 -58 26 -23 33 -5 8 22 l-22 24 148 -5 c125 -4 164 -2 248 16
186 39 356 145 414 260 105 205 -99 532 -409 654 -63 25 -92 31 -180 33 -66 2
-122 -1 -150 -10z m359 -301 c100 -55 168 -156 178 -266 10 -106 -43 -175
-197 -257 -138 -74 -271 -101 -328 -66 -35 20 -74 76 -98 139 -14 37 -19 76
-19 151 0 93 2 105 31 159 61 118 169 178 304 172 60 -3 87 -9 129 -32z
m-1201 -250 c83 -20 131 -45 173 -92 102 -113 147 -272 99 -350 -70 -115 -352
-175 -497 -106 -52 24 -121 95 -144 149 -44 98 -35 177 28 272 82 121 192 162
341 127z"/>
<path d="M3685 5381 c-61 -32 -90 -81 -90 -156 0 -52 4 -67 28 -98 36 -48 81
-71 138 -70 128 2 209 130 154 246 -40 84 -147 120 -230 78z"/>
<path d="M2745 5146 c-95 -41 -125 -177 -60 -262 36 -47 85 -67 151 -62 158
13 212 214 83 307 -34 25 -52 31 -93 31 -28 -1 -65 -7 -81 -14z"/>
<path d="M3799 4668 c-84 -121 -180 -217 -251 -252 -130 -63 -318 -25 -509
104 l-55 38 -55 -52 c-75 -72 -118 -103 -212 -153 -89 -46 -84 -54 12 -24 71
22 147 68 212 129 l47 43 75 -54 c43 -31 109 -67 154 -83 69 -26 91 -29 193
-29 103 0 120 3 164 25 74 37 159 122 226 224 97 147 79 133 138 108 28 -12
79 -29 114 -37 71 -17 215 -20 238 -5 11 7 7 10 -18 10 -58 0 -228 39 -309 70
-43 17 -82 30 -88 30 -6 0 -40 -42 -76 -92z"/>
</g>
</svg>
